<svg width="26" height="26" viewBox="0 0 26 26" fill="none" xmlns="http://www.w3.org/2000/svg">
<path d="M13.0357 22.867C12.9289 22.8672 12.8232 22.8463 12.7245 22.8056C12.6258 22.7649 12.5361 22.7051 12.4605 22.6297L3.41896 13.5866C2.84813 13.0203 2.39534 12.3464 2.08684 11.6039C1.77833 10.8613 1.62024 10.0649 1.62171 9.26087C1.62171 6.41062 3.77971 3.25162 7.68296 3.25162C9.26734 3.25162 10.8533 3.83174 12.0136 4.99037L12.9918 5.96699L13.9538 5.00012C15.0972 3.87263 16.6413 3.24495 18.2471 3.25487C23.0815 3.25487 24.3717 7.61312 24.3717 9.34862C24.3717 10.9037 23.7835 12.4572 22.607 13.6402L13.611 22.6314C13.5354 22.7068 13.4457 22.7665 13.347 22.8072C13.2482 22.848 13.1425 22.8688 13.0357 22.8686V22.867ZM7.68296 4.81812C7.10001 4.81726 6.52262 4.93148 5.9839 5.15422C5.44517 5.37696 4.95571 5.70384 4.54358 6.11613C4.13144 6.52842 3.80474 7.018 3.58219 7.5568C3.35965 8.09561 3.24564 8.67304 3.24671 9.25599C3.24671 10.6795 3.89184 11.7601 4.56784 12.4361L13.0357 20.9072L21.4565 12.4914C22.3177 11.6252 22.7467 10.4877 22.7467 9.34862C22.748 8.75804 22.6324 8.17305 22.4066 7.62737C22.1807 7.08168 21.8491 6.58609 21.4308 6.16917C21.0125 5.75225 20.5159 5.42225 19.9694 5.19818C19.423 4.9741 18.8377 4.8604 18.2471 4.86362C17.1031 4.86362 15.9623 5.29099 15.1043 6.14899L13.5703 7.69112C13.495 7.76689 13.4054 7.82705 13.3067 7.86815C13.2081 7.90925 13.1023 7.93048 12.9954 7.93063C12.8886 7.93078 12.7827 7.90985 12.6839 7.86903C12.5852 7.82821 12.4954 7.7683 12.4198 7.69274L10.8663 6.14087C10.4498 5.72108 9.95407 5.38815 9.4079 5.16137C8.86172 4.93458 8.27597 4.81847 7.68459 4.81974L7.68296 4.81812Z" fill="#161616"/>
</svg>
